<?xml version="1.0" encoding="UTF-8"?>
<svg width="1200pt" height="1200pt" version="1.1" viewBox="0 0 1200 1200" xmlns="http://www.w3.org/2000/svg">
 <path d="m573.01 343.6c-26.773 3.8867-49.555 10.797-73.09 22.348-14.465 7.125-34.656 19.863-45.668 28.934-8.7461 7.125-26.02 23.969-30.551 29.688-1.8359 2.375 2.0508-0.97266 8.7461-7.3398 38.973-37.355 86.582-60.023 140.89-67.152 16.41-2.0508 47.18-2.1602 63.91 0 53.871 6.9102 101.38 30.012 141.96 69.094 7.4492 7.125 11.445 10.578 8.9609 7.5586-7.3398-8.9609-28.285-28.609-39.188-36.812-33.793-25.371-70.066-40.484-111.63-46.316-13.387-1.9414-51.281-1.9414-64.344 0z" fill="#9b9b9b"/>
 <path d="m585.97 369.62c-50.094 4.6406-90.902 21.809-128.36 53.98-36.598 31.523-62.184 73.844-72.871 120.8-4.3203 19.109-5.5078 30.012-5.3984 52.359 0 27.961 3.0234 47.609 10.797 71.469l2.6992 8.3125 3.7773-2.2656c4.3203-2.4844 8.9609-2.0508 15.977 1.5117l4.2109 2.1602-1.2969-28.289 6.2617-7.7734c9.0703-11.336 22.672-26.773 23.75-26.773 0.43359 0 1.7266 3.9961 2.6992 8.8516 3.6719 17.273 6.2617 27.961 6.6953 27.637 0.43359-0.53906 4.75-26.664 4.75-29.148 0-1.0781-3.1289-4.4258-7.0156-7.4492-3.8867-3.0234-7.0156-6.0469-7.0156-6.6953 0-0.75391-1.5117-3.2383-3.2383-5.5078-1.8359-2.375-3.2383-5.1836-3.2383-6.2617 0-1.0781-0.86328-2.2656-1.8359-2.6992-1.0781-0.32422-4.1016-1.6211-6.8008-2.6992l-4.8594-2.1602 3.1289-2.2656c1.7266-1.2969 6.9102-5.3984 11.551-9.1758 4.6406-3.6719 9.0703-6.6953 9.8242-6.6953s3.3477 0.75391 5.7227 1.6211c2.375 0.86328 6.9102 1.5117 10.039 1.6211 6.8008 0 7.3398 1.7266 2.375 7.7734-3.2383 3.8867-3.2383 4.1016-1.6211 7.3398 1.1875 2.375 1.4023 3.7773 0.53906 5.2891-0.53906 1.1875-1.0781 4.2109-1.0781 6.8008 0 2.5898-0.97266 8.2031-2.1602 12.523l-2.0508 7.8828 2.6992 11.551c1.4023 6.3711 2.9141 12.738 3.2383 14.25 0.64844 2.5898 0.64844 2.5898 1.5117 0.43359 0.53906-1.2969 1.2969-9.1758 1.7266-17.598l0.75391-15.332 3.3477 0.64844c1.8359 0.43359 4.2109 0.97266 5.1836 1.1875 4.2109 1.1875 12.738 29.906 12.738 42.75 0 5.3984 0.43359 8.4219 1.1875 8.4219 0.86328 0 0.97266-8.9609 0.32422-32.711-0.43359-17.922-0.86328-33.684-0.86328-35.086-0.10938-3.0234-0.53906-3.0234-5.2891 0.21484-2.0508 1.4023-4.75 2.9141-6.0469 3.3477-4.2109 1.2969-2.375-1.5117 3.5625-5.5078 3.2383-2.1602 6.1523-4.5352 6.4766-5.3984 0.32422-0.86328 1.4023-1.5117 2.375-1.5117 1.0781 0 4.9648-1.9414 8.6367-4.4258l6.6953-4.3203 0.43359-5.8281c0.32422-5.8281 0.32422-5.9375-6.5859-13.711-14.145-16.195-30.336-35.844-30.336-36.922 0-0.53906 0.21484-0.75391 0.43359-0.53906 0.21484 0.21484 8.9609 9.9336 19.539 21.484 13.82 15.223 19.648 20.945 21.16 20.727 1.6211-0.32422 2.0508 0.32422 2.0508 2.9141 0 5.5078 2.9141 5.9375 10.797 1.6211 5.2891-3.0234 7.0156-3.5625 7.6641-2.375 1.4023 2.1602 1.2969 2.2656-3.3477 5.1836-5.1836 3.1289-5.7227 6.9102-1.7266 10.688 3.2383 3.1289 4.3203 7.0156 2.6992 10.148-2.6992 5.2891-9.1758 14.789-10.039 14.789-0.53906 0-0.64844-2.375-0.21484-5.1836 0.75391-5.5078 0.75391-5.6133-10.363-15.223l-2.8086-2.4844-6.3711 3.6719-6.2617 3.7773 0.21484 8.5273c0.53906 19.324 2.5898 62.402 3.0234 62.832 0.32422 0.32422 3.9961 0.10938 8.3125-0.43359 7.0156-0.86328 7.8828-1.1875 8.4219-3.6719 0.53906-2.1602 1.5117-2.8086 4.8594-3.4531 8.0977-1.4023 10.258-1.0781 10.258 1.4023 0 2.1602 0.43359 2.2656 5.7227 1.6211 3.0234-0.43359 7.125-0.97266 9.0703-1.2969 3.0234-0.53906 3.4531-0.32422 4.1016 2.8086 0.43359 1.8359 0.43359 3.6719 0 4.1016-0.32422 0.43359-4.2109 1.1875-8.4219 1.8359-7.6641 1.0781-7.7734 1.0781-8.0977 4.5352-0.32422 3.2383-0.53906 3.4531-7.0156 4.3203-7.8828 1.1875-8.3125 1.0781-8.3125-2.4844 0-3.0234-1.1875-3.1289-11.875-1.1875-6.1523 1.1875-7.0156 1.6211-6.9102 3.7773 0 1.2969 0.10938 7.7734 0.21484 14.359 0.21484 11.445 0.32422 11.875 2.375 11.227 2.8086-0.86328 5.6133 1.2969 4.8594 3.7773-0.43359 1.5117 2.375 2.9141 15.871 8.0977 9.0703 3.4531 17.059 6.8008 17.707 7.4492 0.75391 0.75391 0.97266 5.6133 0.64844 13.82l-0.43359 12.738h-7.8828l0.32422 7.2344c0.21484 6.1523-0.32422 9.1758-3.5625 18.676-6.5859 19-6.3711 38.648 0.53906 54.195 1.1875 2.9141 2.375 5.1836 2.5898 5.1836s-0.97266-3.9961-2.5898-8.7461c-5.9375-16.84-5.3984-31.199 1.7266-52.469 3.1289-9.3906 3.7773-12.738 3.3477-17.164l-0.53906-5.6133 5.2891-0.43359c10.148-0.97266 17.383-8.5273 20.945-21.914 3.8867-14.898 1.5117-28.07-5.6133-30.121-3.1289-0.97266-3.3477-1.2969-2.8086-4.8594 1.2969-9.2852 3.7773-18.137 6.4766-22.996 3.5625-6.4766 13.172-15.652 20.082-19 3.0234-1.5117 5.0742-3.2383 5.0742-4.3203 0-1.9414-1.5117-8.6367-3.3477-15.652l-1.0781-4.1016-15.113 14.359c-8.3125 7.8828-15.547 14.574-16.195 14.789-1.4023 0.43359-29.043-26.773-29.043-28.609 0-0.75391 2.1602-4.2109 4.75-7.7734 2.6992-3.5625 7.125-9.9336 9.9336-14.145 2.8086-4.2109 5.3984-7.6641 5.8281-7.6641 0.43359 0 2.375 2.9141 4.2109 6.4766 1.9414 3.4531 3.7773 6.6953 4.3203 6.9102 0.43359 0.32422 4.1016-9.0703 8.2031-20.727 3.9961-11.66 7.5586-21.809 7.9883-22.562 0.75391-1.4023 16.949-12.199 18.246-12.199 0.53906 0 2.6992 7.8828 4.8594 17.598 2.1602 9.6094 4.6406 19.758 5.3984 22.348l1.5117 4.8594 0.64844-4.8594c0.32422-2.6992 1.1875-10.363 1.8359-17.164 0.64844-6.6953 1.2969-12.633 1.4023-12.957 0.43359-1.1875-16.301-15.223-18.246-15.223-2.5898 0-7.7734-4.1016-9.6094-7.6641-0.97266-1.7266-3.3477-3.7773-5.2891-4.6406-2.4844-1.0781-3.7773-2.375-4.1016-4.1016-0.32422-2.375-0.75391-2.4844-11.875-3.0234-6.3711-0.32422-11.875-0.97266-12.199-1.2969-0.32422-0.32422 1.9414-2.0508 5.0742-3.8867 8.7461-4.8594 9.2852-5.8281 6.4766-11.66-1.2969-2.5898-2.375-5.7227-2.375-6.8008 0-3.0234 5.9375-5.2891 18.895-7.125 6.5859-0.97266 15.977-2.6992 20.945-3.8867 4.9648-1.1875 9.1758-1.9414 9.3906-1.7266 0.53906 0.53906-2.5898 14.574-3.8867 16.949-0.97266 1.7266-0.64844 3.0234 1.6211 6.8008 1.5117 2.5898 2.6992 5.5078 2.6992 6.5859 0 3.0234 5.2891 14.898 7.2344 16.301 1.8359 1.4023 1.8359 2.0508-0.43359 13.172l-2.4844 11.66 2.5898 8.0977c1.2969 4.4258 4.4258 13.172 6.6953 19.434l4.2109 11.336 0.32422-5.3984c0.53906-6.8008-1.6211-36.488-3.4531-48.906-0.75391-5.1836-1.2969-9.5-1.1875-9.6094 0.10938-0.21484 4.4258 1.1875 9.7148 2.9141 5.2891 1.8359 9.9336 2.9141 10.258 2.4844 0.43359-0.53906 2.0508-6.1523 3.7773-12.633 2.8086-10.688 2.9141-11.766 1.2969-12.738-2.375-1.2969-2.2656-4.1016 0.32422-13.926 2.5898-9.8242 2.5898-9.5 0-8.8516-1.1875 0.32422-3.3477 0.21484-4.8594-0.10938-2.375-0.64844-2.8086-1.1875-2.4844-4.2109 0.21484-2.2656 0.97266-3.5625 2.2656-3.7773 3.2383-0.64844 7.2344 0.75391 7.2344 2.4844 0 2.8086 1.5117 1.7266 4.1016-2.6992 1.2969-2.2656 2.375-4.4258 2.375-4.75 0-0.21484-1.9414-0.21484-4.4258 0.10938-4.3203 0.64844-4.4258 0.53906-3.9961-2.4844 0.43359-3.7773 4.3203-4.8594 7.3398-2.0508 2.6992 2.4844 5.5078 1.4023 10.148-3.7773 5.1836-5.7227 5.0742-7.4492-0.32422-7.2344-5.1836 0.21484-7.3398-1.5117-8.7461-6.6953-1.5117-5.6133 0.43359-11.66 5.3984-16.52 6.4766-6.4766 13.496-4.5352 18.352 5.0742 2.2656 4.5352 2.6992 6.9102 2.6992 14.574-0.10938 6.4766-0.64844 10.148-1.9414 12.633-2.6992 5.0742-2.375 6.1523 1.4023 5.2891 4.4258-0.86328 8.6367 0.97266 8.6367 3.6719 0 3.4531-2.9141 3.7773-8.3125 1.0781-5.2891-2.5898-5.9375-2.375-7.7734 3.1289-1.6211 4.75-0.32422 6.0469 5.6133 5.7227 7.125-0.21484 8.5273 0.53906 8.0977 4.4258-0.32422 3.0234-0.75391 3.4531-3.6719 3.7773-2.375 0.21484-3.9961-0.43359-6.1523-2.5898-1.6211-1.5117-3.5625-2.5898-4.3203-2.2656-1.6211 0.64844-2.9141 8.4219-2.9141 18.027 0 5.8281-0.10937 5.9375-4.2109 7.6641-5.6133 2.375-7.4492 5.5078-9.2852 16.195-1.2969 7.125-1.2969 9.1758-0.21484 9.8242 0.64844 0.53906 5.5078 3.1289 10.578 5.7227l9.2852 4.75 3.9961 15.438c2.1602 8.5273 6.5859 25.586 9.8242 38.109 3.2383 12.414 5.8281 23.32 5.7227 24.184-0.21484 0.75391-5.7227 3.9961-12.309 7.125l-11.875 5.6133-9.7148-5.7227c-18.027-10.688-19.324-12.633-18.461-27.746 0.21484-5.1836 0.32422-9.2852 0.10938-9.0703-1.2969 1.1875-12.848 81.617-11.875 82.48 0.21484 0.32422 0.75391-0.86328 1.0781-2.5898 0.64844-3.0234 8.2031-54.953 8.2031-56.246 0-0.43359 1.4023 1.0781 3.2383 3.2383 1.8359 2.1602 7.4492 6.2617 12.633 9.1758 22.238 12.199 31.199 29.473 29.043 55.598-0.75391 9.0703-0.97266 9.3906-3.9961 10.688-12.523 5.1836-16.086 33.574-5.8281 46.961 2.9141 3.7773 9.7148 7.9883 13.172 7.9883 1.0781 0 2.5898 0.43359 3.4531 0.97266 1.4023 0.86328 1.4023 1.2969 0 2.9141-1.1875 1.5117-1.5117 6.3711-1.6211 24.074 0 21.16-0.10938 22.672-2.9141 30.875-4.8594 14.684-13.711 27.207-25.586 36.598-2.5898 2.0508-2.9141 2.5898-1.0781 1.6211 1.5117-0.64844 6.6953-5.2891 11.445-10.148 6.5859-6.5859 9.8242-10.797 12.633-16.84 6.6953-13.926 7.6641-19.434 7.7734-42.75 0-13.602 0.43359-21.16 1.1875-21.914 0.75391-0.75391 4.2109-1.0781 8.6367-0.86328 6.0469 0.21484 7.3398 0.64844 7.0156 1.9414-0.32422 0.86328-0.86328 9.6094-1.2969 19.434-1.2969 29.258-5.8281 41.562-20.082 55.383-3.0234 2.9141-7.5586 6.6953-10.148 8.4219-2.5898 1.7266-4.3203 3.1289-3.7773 3.1289 2.1602 0 16.086-10.258 20.082-14.898 8.2031-9.3906 13.711-23.645 15.652-40.375l0.64844-6.2617 9.2852-4.3203c9.8242-4.5352 24.723-13.387 30.012-17.812l3.2383-2.5898-15.547-0.10938h-15.547l0.64844-21.375c0.32422-11.66 0.97266-22.457 1.2969-24.074 0.53906-2.1602 0.21484-2.9141-1.8359-3.8867-3.5625-1.7266-14.898-12.09-14.898-13.711 0-2.375 30.77-33.469 32.172-32.605 0.75391 0.43359 1.2969 3.6719 1.4023 8.5273 0 4.3203 0.32422 9.7148 0.75391 12.09l0.75391 4.3203 1.8359-8.0977c2.375-10.902 3.3477-18.246 2.0508-16.301-0.86328 1.2969-1.7266 0.97266-4.9648-1.8359-2.0508-1.9414-4.3203-3.4531-4.8594-3.4531-0.53906 0-2.1602-1.9414-3.5625-4.4258-1.5117-2.375-4.2109-5.2891-6.0469-6.4766l-3.4531-2.1602 5.7227-4.2109c5.8281-4.4258 6.2617-4.5352 15.762-2.5898 2.1602 0.43359 2.2656 0.75391 1.0781 2.9141-1.4023 2.6992-1.1875 12.633 0.32422 14.145 0.53906 0.64844 0.97266 2.2656 0.97266 3.7773 0 2.2656 0.21484 2.4844 1.0781 1.1875 0.75391-1.0781 1.2969-1.2969 1.9414-0.43359 0.43359 0.64844 2.2656 1.5117 4.1016 1.8359 1.9414 0.32422 4.6406 0.97266 6.1523 1.2969l2.8086 0.75391 0.32422-34.98c0.32422-33.684 0.43359-35.086 2.8086-40.27 10.578-23.102 41.348-25.586 52.254-4.3203 2.8086 5.2891 3.0234 14.789 0.53906 19.539-2.8086 5.5078-8.7461 9.9336-14.145 10.688-7.3398 1.1875-14.684-2.6992-16.734-8.7461-1.6211-4.75-1.1875-8.4219 1.5117-11.766l1.8359-2.1602-0.86328 2.1602c-0.43359 1.1875-0.97266 4.2109-1.2969 6.6953-0.43359 4.1016 0 5.0742 3.3477 8.4219 3.2383 3.2383 4.5352 3.7773 8.6367 3.7773 19.324 0 21.375-28.285 2.6992-36.168-5.3984-2.1602-13.387-2.0508-18.676 0.43359-5.6133 2.4844-11.984 9.7148-13.496 15.008-0.75391 2.9141-0.97266 28.719-0.86328 78.484l0.32422 74.168 7.3398-7.4492 7.2344-7.3398v-59.16c0-39.188 0.32422-58.945 1.0781-58.516 0.64844 0.43359 1.0781 20.836 1.0781 57.543l0.10938 56.895 4.4258-4.8594c2.375-2.6992 7.6641-9.9336 11.875-16.195 31.738-48.043 43.617-112.39 31.633-171.44-19.215-93.926-93.816-165.39-188.39-180.07-10.148-1.5117-42.535-2.8086-51.82-1.9414zm-108.07 117.46c14.145 7.3398 14.035 27.637-0.21484 32.926-10.902 4.1016-24.613-4.9648-24.508-16.195l0.10937-3.6719 1.4023 3.2383c2.5898 5.7227 6.4766 8.4219 13.062 8.9609 5.6133 0.43359 6.0469 0.32422 9.7148-3.3477 3.3477-3.3477 3.7773-4.4258 3.7773-9.3906 0-5.0742-0.43359-6.0469-4.2109-9.8242-4.4258-4.4258-4.1016-5.1836 0.86328-2.6992zm193.03 175.32c7.6641 6.1523 13.172 12.633 16.41 19.539 2.5898 5.6133 2.8086 7.125 2.8086 20.297 0 7.7734-0.21484 14.465-0.53906 14.684-0.32422 0.32422-3.2383 0-6.4766-0.75391l-5.9375-1.4023 0.43359-11.766c0.53906-18.246-2.6992-30.23-10.797-40.484-4.2109-5.3984-2.5898-5.3984 4.1016-0.10938zm15.008 56.355c2.375 0.97266 2.375 1.0781 0.86328 4.3203-2.5898 5.0742-3.6719 15.438-2.4844 22.996 1.9414 11.984 7.125 20.621 14.035 23.426 1.7266 0.75391 3.1289 1.7266 3.1289 2.2656 0 1.5117-15.547-0.21484-16.41-1.7266-0.43359-0.75391-2.6992-1.7266-4.8594-2.1602-5.5078-0.97266-9.2852-3.1289-12.633-7.0156-8.2031-9.8242-7.8828-32.496 0.64844-41.023 3.2383-3.2383 3.6719-3.4531 9.3906-2.6992 3.2383 0.43359 7.0156 1.1875 8.3125 1.6211z" fill="#9b9b9b"/>
 <path d="m493.66 683.89c0.53906 4.1016 0.97266 9.9336 0.97266 13.172 0.10938 3.9961 0.53906 6.0469 1.6211 6.3711 1.2969 0.43359 1.4023-0.75391 0.86328-6.9102-0.43359-4.1016-0.75391-10.258-0.75391-13.711 0-4.9648-0.32422-6.1523-1.7266-6.1523-1.6211 0-1.7266 0.86328-0.97266 7.2344z" fill="#9b9b9b"/>
 <path d="m409.24 695.33c-3.7773 0.64844-6.8008 1.5117-6.8008 2.1602 0 0.64844 1.7266 4.2109 3.7773 7.8828 2.6992 4.8594 4.6406 7.125 6.5859 7.5586 1.5117 0.43359 15.223 0.21484 30.445-0.32422l27.746-1.0781-26.664-0.10938-26.773-0.21484v-7.9883c0-4.4258-0.32422-8.2031-0.75391-8.4219-0.53906-0.21484-3.8867 0-7.5586 0.53906z" fill="#9b9b9b"/>
 <path d="m751.68 711.85c-0.53906 5.5078-0.32422 8.6367 0.43359 9.3906 0.86328 0.86328 1.1875-1.4023 1.1875-8.2031 0-5.1836-0.21484-9.3906-0.43359-9.3906-0.21484 0-0.75391 3.6719-1.1875 8.2031z" fill="#9b9b9b"/>
 <path d="m718.54 709.04c-2.9141 1.5117-5.1836 3.0234-5.1836 3.4531 0 0.43359 1.2969 1.5117 3.0234 2.375 6.1523 3.4531 6.1523 3.4531 2.2656 7.125-3.9961 3.6719-2.4844 3.3477 3.1289-0.75391 3.0234-2.2656 3.4531-3.2383 3.4531-7.6641 0-7.2344-0.75391-7.7734-6.6953-4.5352z" fill="#9b9b9b"/>
 <path d="m583.38 720.81c-1.6211 5.3984-3.6719 10.363-4.6406 11.012-0.86328 0.75391-1.2969 2.1602-1.0781 3.2383 0.32422 1.0781-0.43359 5.1836-1.5117 9.2852-2.8086 10.148-2.375 11.227 0.64844 1.5117 2.8086-8.6367 3.6719-10.148 5.6133-8.9609 0.86328 0.53906 0.64844 3.0234-0.86328 9.3906-1.0781 4.75-2.2656 12.957-2.4844 18.352l-0.53906 9.7148 0.97266-9.1758c1.2969-11.336 4.2109-24.938 5.7227-26.773 0.75391-0.86328 2.1602-1.1875 3.8867-0.75391 1.5117 0.43359 4.3203 0.86328 6.0469 1.0781 10.688 1.1875 16.195 1.8359 24.613 3.1289 8.9609 1.2969 9.6094 1.2969 10.578-0.64844 0.86328-1.6211 0.53906-2.1602-1.9414-3.1289-7.2344-2.8086-24.938-7.4492-28.609-7.4492-2.5898 0-4.1016-0.53906-4.1016-1.4023 0-0.97266-0.21484-0.97266-0.97266 0.10938-0.53906 0.86328-2.4844 1.4023-4.5352 1.1875-2.0508-0.10938-4.5352 0.21484-5.6133 0.64844s-2.2656 0.53906-2.5898 0.21484c-0.32422-0.43359 0.75391-4.8594 2.2656-10.039 1.6211-5.0742 2.6992-9.5 2.4844-9.7148-0.21484-0.21484-1.7266 3.8867-3.3477 9.1758z" fill="#9b9b9b"/>
 <path d="m591.47 712.93c0 1.1875 0.32422 1.5117 0.64844 0.64844 0.32422-0.75391 0.21484-1.7266-0.10938-2.0508-0.32422-0.43359-0.64844 0.21484-0.53906 1.4023z" fill="#9b9b9b"/>
 <path d="m588.77 721.56c-0.43359 1.5117-0.53906 3.0234-0.32422 3.3477 0.32422 0.21484 0.86328-0.86328 1.1875-2.4844 0.43359-1.5117 0.53906-3.0234 0.32422-3.3477-0.32422-0.21484-0.86328 0.86328-1.1875 2.4844z" fill="#9b9b9b"/>
 <path d="m590.93 744.23c-0.43359 2.1602-0.53906 4.1016-0.32422 4.3203 0.32422 0.32422 0.86328-1.1875 1.1875-3.4531 0.43359-2.1602 0.53906-4.1016 0.32422-4.3203-0.32422-0.32422-0.86328 1.1875-1.1875 3.4531z" fill="#9b9b9b"/>
 <path d="m504.24 746.5c-1.0781 0.32422-1.1875 6.1523-0.75391 25.477 0.32422 13.82 0.75391 26.02 0.97266 27.312 0.43359 2.0508 8.5273 6.9102 9.6094 5.7227 0.21484-0.21484 0-10.363-0.53906-22.562-0.43359-12.199-0.86328-25.371-0.86328-29.473l-0.10938-7.2344-3.4531 0.10938c-1.9414 0-4.2109 0.32422-4.8594 0.64844z" fill="#9b9b9b"/>
 <path d="m490.42 749.74c-2.9141 0.86328-6.0469 2.1602-6.6953 2.6992-0.97266 0.75391-1.4023 5.2891-1.4023 15.438 0 20.188-0.10938 19.758 8.8516 25.156 4.2109 2.5898 7.8828 4.4258 8.0977 4.1016 0.32422-0.32422 0.21484-11.445-0.21484-24.832-0.53906-16.84-1.1875-24.398-2.0508-24.289-0.64844 0-3.5625 0.75391-6.5859 1.7266z" fill="#9b9b9b"/>
 <path d="m589.53 754.92c0 2.375 0.21484 3.2383 0.43359 1.8359 0.21484-1.2969 0.21484-3.2383 0-4.3203-0.32422-0.97266-0.53906 0.10938-0.43359 2.4844z" fill="#9b9b9b"/>
 <path d="m571.93 761.62c-0.64844 4.1016-0.97266 10.363-0.75391 13.82l0.32422 6.4766 0.21484-7.125c0.10938-3.8867 0.75391-9.8242 1.4023-13.277 0.64844-3.4531 0.86328-6.4766 0.64844-6.8008-0.32422-0.21484-1.0781 2.9141-1.8359 6.9102z" fill="#9b9b9b"/>
 <path d="m588.45 765.72c0 2.375 0.21484 3.2383 0.43359 1.8359 0.21484-1.2969 0.21484-3.2383 0-4.3203-0.32422-0.97266-0.53906 0.10938-0.43359 2.4844z" fill="#9b9b9b"/>
</svg>
